<?xml version="1.0" standalone="no"?>
<!DOCTYPE svg PUBLIC "-//W3C//DTD SVG 20010904//EN"
 "http://www.w3.org/TR/2001/REC-SVG-20010904/DTD/svg10.dtd">
<svg version="1.0" xmlns="http://www.w3.org/2000/svg"
 width="1350.000000pt" height="1350.000000pt" viewBox="0 0 1350.000000 1350.000000"
 preserveAspectRatio="xMidYMid meet">
<metadata>
Created by potrace 1.16, written by Peter Selinger 2001-2019
</metadata>
<g transform="translate(0.000000,1350.000000) scale(0.100000,-0.100000)"
fill="#000000" stroke="none">
<path d="M2040 11686 c233 -233 429 -422 434 -419 5 3 6 2 3 -4 -9 -14 209
-226 224 -217 8 5 9 3 4 -5 -9 -16 61 -85 77 -75 7 4 8 3 4 -5 -10 -16 120
-145 136 -135 6 4 8 3 5 -3 -4 -6 11 -29 33 -52 37 -38 59 -53 45 -32 -3 5 -1
12 4 16 6 3 8 -3 6 -14 -2 -10 2 -25 8 -33 20 -23 71 -64 63 -51 -3 6 -2 14 3
18 6 3 8 -3 6 -14 -3 -14 16 -39 62 -83 35 -35 69 -62 75 -60 5 1 7 -1 4 -6
-7 -12 158 -174 169 -165 4 4 5 3 2 -3 -8 -14 66 -87 78 -77 4 5 5 3 2 -3 -8
-13 46 -67 57 -57 4 5 6 1 4 -7 -1 -8 3 -14 10 -15 6 0 11 -3 10 -7 -5 -13
225 -237 236 -231 6 3 7 2 3 -2 -10 -11 854 -876 867 -868 5 3 6 2 3 -4 -8
-13 67 -86 78 -76 4 5 5 3 2 -3 -8 -14 17 -37 27 -26 4 4 6 0 4 -8 -2 -8 3
-14 10 -12 8 1 11 -2 8 -7 -8 -12 18 -33 29 -23 5 4 5 2 2 -4 -8 -14 17 -37
28 -26 5 4 5 2 2 -4 -8 -14 36 -57 48 -47 4 5 6 4 3 -2 -7 -13 17 -36 28 -27
4 4 4 2 1 -4 -9 -15 48 -68 64 -59 8 5 10 4 5 -4 -10 -15 13 -43 27 -34 5 3 7
1 4 -4 -4 -6 9 -21 28 -34 19 -13 35 -29 35 -36 0 -7 7 -16 16 -21 8 -5 397
-390 864 -856 574 -574 852 -846 861 -841 8 5 10 4 5 -3 -8 -13 1450 -1469
1466 -1464 5 1 7 -1 4 -6 -3 -5 102 -114 232 -244 l237 -236 1763 882 c1655
828 1762 883 1737 894 -15 7 -31 9 -37 6 -7 -5 -8 -2 -3 6 6 10 4 12 -9 7 -9
-4 -15 -3 -12 2 7 11 -43 33 -56 25 -6 -4 -8 -3 -5 3 8 12 -61 46 -75 37 -6
-4 -8 -3 -5 3 8 12 -61 46 -75 37 -6 -4 -8 -3 -5 3 8 12 -61 46 -75 37 -6 -4
-8 -3 -5 3 8 12 -61 46 -75 37 -6 -4 -8 -3 -5 3 8 12 -61 46 -75 37 -6 -4 -8
-3 -5 3 8 12 -61 46 -75 37 -6 -4 -8 -3 -5 3 8 12 -61 46 -75 37 -6 -4 -8 -3
-5 3 8 12 -61 46 -75 37 -6 -4 -8 -3 -5 3 8 12 -61 46 -75 37 -6 -4 -8 -3 -5
3 8 12 -61 46 -75 37 -6 -4 -8 -3 -5 3 8 12 -61 46 -75 37 -6 -4 -8 -3 -5 3 8
12 -61 46 -75 37 -6 -4 -8 -3 -5 3 8 12 -61 46 -75 37 -6 -4 -8 -3 -5 3 8 12
-61 46 -75 37 -6 -4 -8 -3 -5 3 8 12 -61 46 -75 37 -6 -4 -8 -3 -5 3 8 12 -61
46 -75 37 -6 -4 -8 -3 -5 3 8 12 -61 46 -75 37 -6 -4 -8 -3 -5 3 8 12 -61 46
-75 37 -6 -4 -8 -3 -5 3 8 12 -61 46 -75 37 -6 -4 -8 -3 -5 3 8 12 -61 46 -75
37 -6 -4 -8 -3 -5 3 8 12 -61 46 -75 37 -6 -4 -8 -3 -5 3 8 12 -61 46 -75 37
-6 -4 -8 -3 -5 3 8 12 -61 46 -75 37 -6 -4 -8 -3 -5 3 8 12 -61 46 -75 37 -6
-4 -8 -3 -5 3 8 12 -61 46 -75 37 -6 -4 -8 -3 -5 3 8 12 -61 46 -75 37 -6 -4
-8 -3 -5 3 8 12 -61 46 -75 37 -6 -4 -8 -3 -5 3 8 12 -61 46 -75 37 -6 -4 -8
-3 -5 3 8 12 -61 46 -75 37 -6 -4 -8 -3 -5 3 8 12 -61 46 -75 37 -6 -4 -8 -3
-5 3 8 12 -61 46 -75 37 -6 -4 -8 -3 -5 3 8 12 -61 46 -75 37 -6 -4 -8 -3 -5
3 8 12 -61 46 -75 37 -6 -4 -8 -3 -5 3 8 12 -61 46 -75 37 -6 -4 -8 -3 -5 3 8
12 -61 46 -75 37 -6 -4 -8 -3 -5 3 8 12 -61 46 -75 37 -6 -4 -8 -3 -5 3 8 12
-61 46 -75 37 -6 -4 -8 -3 -5 3 8 12 -61 46 -75 37 -6 -4 -8 -3 -5 3 8 12 -61
46 -75 37 -6 -4 -8 -3 -5 3 8 12 -61 46 -75 37 -6 -4 -8 -3 -5 3 8 12 -61 46
-75 37 -6 -4 -8 -3 -5 3 8 12 -61 46 -75 37 -6 -4 -8 -3 -5 3 8 12 -61 46 -75
37 -6 -4 -8 -3 -5 3 8 12 -61 46 -75 37 -6 -4 -8 -3 -5 3 8 12 -61 46 -75 37
-6 -4 -8 -3 -5 3 8 12 -61 46 -75 37 -6 -4 -8 -3 -5 3 8 12 -61 46 -75 37 -6
-4 -8 -3 -5 3 8 12 -61 46 -75 37 -6 -4 -8 -3 -5 3 8 12 -61 46 -75 37 -6 -4
-8 -3 -5 3 8 12 -61 46 -75 37 -6 -4 -8 -3 -5 3 8 12 -61 46 -75 37 -6 -4 -8
-3 -5 3 8 12 -61 46 -75 37 -6 -4 -8 -3 -5 3 8 12 -61 46 -75 37 -6 -4 -8 -3
-5 3 8 12 -61 46 -75 37 -6 -4 -8 -3 -5 3 8 12 -61 46 -75 37 -6 -4 -8 -3 -5
3 8 12 -61 46 -75 37 -6 -4 -8 -3 -5 3 8 12 -61 46 -75 37 -6 -4 -8 -3 -5 3 8
12 -61 46 -75 37 -6 -4 -8 -3 -5 3 8 12 -61 46 -75 37 -6 -4 -8 -3 -5 3 8 12
-61 46 -75 37 -6 -4 -8 -3 -5 3 8 12 -61 46 -75 37 -6 -4 -8 -3 -5 3 8 12 -61
46 -75 37 -6 -4 -8 -3 -5 3 8 12 -61 46 -75 37 -6 -4 -8 -3 -5 3 8 12 -61 46
-75 37 -6 -4 -9 -3 -6 2 7 10 -856 450 -878 448 -8 -1 -12 1 -10 5 5 8 -822
426 -840 425 -8 -1 -12 1 -9 5 2 4 -37 28 -88 52 -51 25 -190 96 -309 158
-120 61 -218 108 -218 104 0 -4 -4 -3 -8 3 -4 6 -108 62 -232 124 -124 62
-229 116 -235 120 -5 5 -19 10 -30 12 -11 1 -22 6 -25 9 -9 12 -360 190 -360
183 0 -4 -8 0 -17 8 -24 21 -283 149 -283 140 0 -4 -4 -2 -8 4 -7 12 -146 85
-153 81 -2 -1 -3 0 -1 3 4 7 -482 248 -490 243 -5 -2 -8 0 -8 5 0 9 -47 33
-67 35 -4 0 -14 7 -21 14 -8 7 -17 11 -22 8 -5 -3 -10 -1 -12 4 -6 15 -220
121 -232 114 -6 -3 -8 -3 -4 2 10 11 -539 288 -554 279 -6 -4 -9 -3 -5 2 3 5
-67 46 -156 92 l-162 83 425 -425z"/>
</g>
</svg>
